# xmcd CD database file
#
# Track frame offsets:
#	150
#	18167
#	35525
#	53642
#
# Disc length: 920 seconds
#
# Revision: 0
# Processed by: cddbd v1.5.1PL0 Copyright (c) Steve Scherf et al.
# Submitted via: CDex 1.51
#
DISCID=25039604
DTITLE=テニスの王子様 - 向日岳人ＤＡ・ＤＡ・ＤＡ
DYEAR=2003
DGENRE=Anime
TTITLE0=ＤＡ・ＤＡ・ＤＡ
TTITLE1=ＤＡ・ＤＡ・ＤＡ（Remix Version）
TTITLE2=ＤＡ・ＤＡ・ＤＡ（Original Karaoke）
TTITLE3=VOICE MESSAGE
EXTD=YEAR: 2003
EXTT0=
EXTT1=
EXTT2=
EXTT3=
PLAYORDER=
